<?xml version="1.0" encoding="UTF-8"?>
<svg xmlns="http://www.w3.org/2000/svg" xmlns:xlink="http://www.w3.org/1999/xlink" width="375pt" height="374.999991pt" viewBox="0 0 375 374.999991" version="1.2">
<g id="surface1">
<path style=" stroke:none;fill-rule:nonzero;fill:rgb(100%,0%,46.669006%);fill-opacity:1;" d="M 187.5 19.710938 C 184.59375 19.710938 181.6875 19.78125 178.785156 19.925781 C 175.878906 20.066406 172.980469 20.28125 170.085938 20.566406 C 167.195312 20.851562 164.308594 21.207031 161.433594 21.632812 C 158.558594 22.0625 155.695312 22.558594 152.84375 23.125 C 149.992188 23.691406 147.15625 24.328125 144.335938 25.035156 C 141.515625 25.742188 138.714844 26.515625 135.933594 27.359375 C 133.152344 28.203125 130.390625 29.117188 127.652344 30.09375 C 124.917969 31.074219 122.203125 32.121094 119.519531 33.234375 C 116.832031 34.347656 114.175781 35.523438 111.546875 36.765625 C 108.917969 38.011719 106.324219 39.316406 103.757812 40.6875 C 101.195312 42.058594 98.667969 43.492188 96.171875 44.984375 C 93.679688 46.480469 91.222656 48.035156 88.804688 49.648438 C 86.390625 51.265625 84.011719 52.9375 81.675781 54.671875 C 79.34375 56.402344 77.050781 58.191406 74.804688 60.035156 C 72.554688 61.878906 70.355469 63.777344 68.203125 65.730469 C 66.046875 67.683594 63.941406 69.6875 61.886719 71.742188 C 59.832031 73.796875 57.828125 75.902344 55.875 78.058594 C 53.921875 80.210938 52.023438 82.410156 50.179688 84.660156 C 48.335938 86.90625 46.546875 89.199219 44.816406 91.53125 C 43.082031 93.867188 41.410156 96.246094 39.792969 98.660156 C 38.179688 101.078125 36.625 103.535156 35.128906 106.027344 C 33.632812 108.523438 32.203125 111.050781 30.832031 113.613281 C 29.460938 116.179688 28.15625 118.773438 26.910156 121.402344 C 25.667969 124.03125 24.492188 126.6875 23.378906 129.375 C 22.265625 132.058594 21.21875 134.773438 20.238281 137.507812 C 19.261719 140.246094 18.347656 143.007812 17.503906 145.789062 C 16.660156 148.570312 15.886719 151.371094 15.179688 154.191406 C 14.472656 157.011719 13.835938 159.847656 13.269531 162.699219 C 12.703125 165.550781 12.203125 168.414062 11.777344 171.289062 C 11.351562 174.164062 10.996094 177.050781 10.710938 179.945312 C 10.425781 182.835938 10.210938 185.734375 10.070312 188.640625 C 9.925781 191.542969 9.855469 194.449219 9.855469 197.355469 C 9.855469 200.261719 9.925781 203.167969 10.070312 206.070312 C 10.210938 208.976562 10.425781 211.875 10.710938 214.769531 C 10.996094 217.660156 11.351562 220.546875 11.777344 223.421875 C 12.203125 226.296875 12.703125 229.160156 13.269531 232.011719 C 13.835938 234.863281 14.472656 237.699219 15.179688 240.519531 C 15.886719 243.339844 16.660156 246.140625 17.503906 248.921875 C 18.347656 251.707031 19.261719 254.464844 20.238281 257.203125 C 21.21875 259.941406 22.265625 262.652344 23.378906 265.335938 C 24.492188 268.023438 25.667969 270.679688 26.910156 273.308594 C 28.15625 275.9375 29.460938 278.53125 30.832031 281.097656 C 32.203125 283.660156 33.632812 286.1875 35.128906 288.683594 C 36.625 291.175781 38.179688 293.632812 39.792969 296.050781 C 41.410156 298.46875 43.082031 300.84375 44.816406 303.179688 C 46.546875 305.511719 48.335938 307.804688 50.179688 310.050781 C 52.023438 312.300781 53.921875 314.5 55.875 316.652344 C 57.828125 318.808594 59.832031 320.914062 61.886719 322.96875 C 63.941406 325.023438 66.046875 327.027344 68.203125 328.980469 C 70.355469 330.933594 72.554688 332.832031 74.804688 334.675781 C 77.050781 336.519531 79.34375 338.308594 81.675781 340.039062 C 84.011719 341.773438 86.390625 343.445312 88.804688 345.0625 C 91.222656 346.675781 93.679688 348.230469 96.171875 349.726562 C 98.667969 351.222656 101.195312 352.652344 103.757812 354.023438 C 106.324219 355.394531 108.917969 356.699219 111.546875 357.945312 C 114.175781 359.1875 116.832031 360.363281 119.519531 361.476562 C 122.203125 362.589844 124.917969 363.636719 127.652344 364.617188 C 130.390625 365.59375 133.152344 366.507812 135.933594 367.351562 C 138.714844 368.195312 141.515625 368.96875 144.335938 369.675781 C 147.15625 370.382812 149.992188 371.019531 152.84375 371.585938 C 155.695312 372.152344 158.558594 372.652344 161.433594 373.078125 C 164.308594 373.503906 167.195312 373.859375 170.085938 374.144531 C 172.980469 374.429688 175.878906 374.644531 178.785156 374.785156 C 181.6875 374.929688 184.59375 375 187.5 375 C 190.40625 375 193.3125 374.929688 196.214844 374.785156 C 199.121094 374.644531 202.019531 374.429688 204.914062 374.144531 C 207.804688 373.859375 210.691406 373.503906 213.566406 373.078125 C 216.441406 372.652344 219.304688 372.152344 222.15625 371.585938 C 225.007812 371.019531 227.84375 370.382812 230.664062 369.675781 C 233.484375 368.96875 236.285156 368.195312 239.066406 367.351562 C 241.847656 366.507812 244.609375 365.59375 247.347656 364.617188 C 250.082031 363.636719 252.796875 362.589844 255.480469 361.476562 C 258.167969 360.363281 260.824219 359.1875 263.453125 357.945312 C 266.082031 356.699219 268.675781 355.394531 271.242188 354.023438 C 273.804688 352.652344 276.332031 351.222656 278.828125 349.726562 C 281.320312 348.230469 283.777344 346.675781 286.195312 345.0625 C 288.609375 343.445312 290.988281 341.773438 293.324219 340.039062 C 295.65625 338.308594 297.949219 336.519531 300.195312 334.675781 C 302.445312 332.832031 304.644531 330.933594 306.796875 328.980469 C 308.953125 327.027344 311.058594 325.023438 313.113281 322.96875 C 315.167969 320.914062 317.171875 318.808594 319.125 316.652344 C 321.078125 314.5 322.976562 312.300781 324.820312 310.050781 C 326.664062 307.804688 328.453125 305.511719 330.183594 303.179688 C 331.917969 300.84375 333.589844 298.46875 335.207031 296.050781 C 336.820312 293.632812 338.375 291.175781 339.871094 288.683594 C 341.363281 286.1875 342.796875 283.660156 344.167969 281.097656 C 345.539062 278.53125 346.84375 275.9375 348.089844 273.308594 C 349.332031 270.679688 350.507812 268.023438 351.621094 265.335938 C 352.734375 262.652344 353.78125 259.941406 354.761719 257.203125 C 355.738281 254.464844 356.652344 251.707031 357.496094 248.921875 C 358.339844 246.140625 359.113281 243.339844 359.820312 240.519531 C 360.527344 237.699219 361.164062 234.863281 361.730469 232.011719 C 362.296875 229.160156 362.796875 226.296875 363.222656 223.421875 C 363.648438 220.546875 364.003906 217.660156 364.289062 214.769531 C 364.574219 211.875 364.789062 208.976562 364.929688 206.070312 C 365.074219 203.167969 365.144531 200.261719 365.144531 197.355469 C 365.144531 194.449219 365.074219 191.542969 364.929688 188.640625 C 364.789062 185.734375 364.574219 182.835938 364.289062 179.945312 C 364.003906 177.050781 363.648438 174.164062 363.222656 171.289062 C 362.796875 168.414062 362.296875 165.550781 361.730469 162.699219 C 361.164062 159.847656 360.527344 157.011719 359.820312 154.191406 C 359.113281 151.371094 358.339844 148.570312 357.496094 145.789062 C 356.652344 143.007812 355.738281 140.246094 354.761719 137.507812 C 353.78125 134.773438 352.734375 132.058594 351.621094 129.375 C 350.507812 126.6875 349.332031 124.03125 348.089844 121.402344 C 346.84375 118.773438 345.539062 116.179688 344.167969 113.613281 C 342.796875 111.050781 341.363281 108.523438 339.871094 106.027344 C 338.375 103.535156 336.820312 101.078125 335.207031 98.660156 C 333.589844 96.246094 331.917969 93.867188 330.183594 91.53125 C 328.453125 89.199219 326.664062 86.90625 324.820312 84.660156 C 322.976562 82.410156 321.078125 80.210938 319.125 78.058594 C 317.171875 75.902344 315.167969 73.796875 313.113281 71.742188 C 311.058594 69.6875 308.953125 67.683594 306.796875 65.730469 C 304.644531 63.777344 302.445312 61.878906 300.195312 60.035156 C 297.949219 58.191406 295.65625 56.402344 293.324219 54.671875 C 290.988281 52.9375 288.609375 51.265625 286.195312 49.648438 C 283.777344 48.035156 281.320312 46.480469 278.828125 44.984375 C 276.332031 43.492188 273.804688 42.058594 271.242188 40.6875 C 268.675781 39.316406 266.082031 38.011719 263.453125 36.765625 C 260.824219 35.523438 258.167969 34.347656 255.480469 33.234375 C 252.796875 32.121094 250.082031 31.074219 247.347656 30.09375 C 244.609375 29.117188 241.847656 28.203125 239.066406 27.359375 C 236.285156 26.515625 233.484375 25.742188 230.664062 25.035156 C 227.84375 24.328125 225.007812 23.691406 222.15625 23.125 C 219.304688 22.558594 216.441406 22.0625 213.566406 21.632812 C 210.691406 21.207031 207.804688 20.851562 204.914062 20.566406 C 202.019531 20.28125 199.121094 20.066406 196.214844 19.925781 C 193.3125 19.78125 190.40625 19.710938 187.5 19.710938 Z M 187.5 19.710938 "/>
<path style=" stroke:none;fill-rule:nonzero;fill:rgb(100%,100%,100%);fill-opacity:1;" d="M 187.5 111.425781 C 186.09375 111.425781 184.6875 111.457031 183.285156 111.527344 C 181.878906 111.597656 180.476562 111.699219 179.078125 111.835938 C 177.675781 111.976562 176.28125 112.148438 174.890625 112.355469 C 173.5 112.558594 172.113281 112.800781 170.734375 113.074219 C 169.355469 113.347656 167.984375 113.65625 166.621094 114 C 165.257812 114.339844 163.902344 114.714844 162.554688 115.125 C 161.210938 115.53125 159.875 115.972656 158.550781 116.449219 C 157.226562 116.921875 155.914062 117.425781 154.617188 117.964844 C 153.316406 118.503906 152.03125 119.074219 150.757812 119.675781 C 149.488281 120.277344 148.230469 120.90625 146.992188 121.570312 C 145.75 122.234375 144.527344 122.925781 143.324219 123.648438 C 142.117188 124.371094 140.929688 125.125 139.757812 125.90625 C 138.589844 126.6875 137.441406 127.496094 136.3125 128.335938 C 135.179688 129.171875 134.074219 130.039062 132.984375 130.929688 C 131.898438 131.820312 130.832031 132.738281 129.792969 133.683594 C 128.75 134.628906 127.730469 135.597656 126.738281 136.59375 C 125.742188 137.585938 124.773438 138.605469 123.828125 139.648438 C 122.882812 140.691406 121.964844 141.753906 121.074219 142.839844 C 120.183594 143.929688 119.316406 145.035156 118.480469 146.167969 C 117.640625 147.296875 116.832031 148.445312 116.050781 149.613281 C 115.269531 150.785156 114.515625 151.972656 113.792969 153.179688 C 113.070312 154.382812 112.378906 155.609375 111.714844 156.847656 C 111.050781 158.089844 110.421875 159.34375 109.820312 160.613281 C 109.21875 161.886719 108.648438 163.171875 108.109375 164.472656 C 107.570312 165.769531 107.066406 167.082031 106.589844 168.40625 C 106.117188 169.730469 105.675781 171.066406 105.269531 172.410156 C 104.859375 173.757812 104.484375 175.113281 104.144531 176.476562 C 103.800781 177.839844 103.492188 179.210938 103.21875 180.589844 C 102.945312 181.96875 102.703125 183.355469 102.5 184.746094 C 102.292969 186.136719 102.121094 187.535156 101.980469 188.933594 C 101.84375 190.332031 101.742188 191.734375 101.671875 193.140625 C 101.601562 194.542969 101.570312 195.949219 101.570312 197.355469 C 101.570312 198.761719 101.601562 200.167969 101.671875 201.570312 C 101.742188 202.976562 101.84375 204.378906 101.980469 205.777344 C 102.121094 207.179688 102.292969 208.574219 102.5 209.964844 C 102.703125 211.355469 102.945312 212.742188 103.21875 214.121094 C 103.492188 215.5 103.800781 216.871094 104.144531 218.234375 C 104.484375 219.597656 104.859375 220.953125 105.269531 222.300781 C 105.675781 223.644531 106.117188 224.980469 106.589844 226.304688 C 107.066406 227.628906 107.570312 228.941406 108.109375 230.238281 C 108.648438 231.539062 109.21875 232.824219 109.820312 234.097656 C 110.421875 235.367188 111.050781 236.625 111.714844 237.863281 C 112.378906 239.105469 113.070312 240.328125 113.792969 241.535156 C 114.515625 242.738281 115.269531 243.925781 116.050781 245.097656 C 116.832031 246.265625 117.640625 247.414062 118.480469 248.546875 C 119.316406 249.675781 120.183594 250.78125 121.074219 251.871094 C 121.964844 252.957031 122.882812 254.023438 123.828125 255.0625 C 124.773438 256.105469 125.742188 257.125 126.738281 258.117188 C 127.730469 259.113281 128.75 260.082031 129.792969 261.027344 C 130.832031 261.972656 131.898438 262.890625 132.984375 263.78125 C 134.074219 264.671875 135.179688 265.539062 136.3125 266.375 C 137.441406 267.214844 138.589844 268.023438 139.757812 268.804688 C 140.929688 269.585938 142.117188 270.339844 143.324219 271.0625 C 144.527344 271.785156 145.75 272.476562 146.992188 273.140625 C 148.230469 273.804688 149.488281 274.433594 150.757812 275.035156 C 152.03125 275.636719 153.316406 276.207031 154.617188 276.746094 C 155.914062 277.285156 157.226562 277.789062 158.550781 278.265625 C 159.875 278.738281 161.210938 279.179688 162.554688 279.585938 C 163.902344 279.996094 165.257812 280.371094 166.621094 280.710938 C 167.984375 281.054688 169.355469 281.363281 170.734375 281.636719 C 172.113281 281.910156 173.5 282.152344 174.890625 282.355469 C 176.28125 282.5625 177.675781 282.734375 179.078125 282.875 C 180.476562 283.011719 181.878906 283.113281 183.285156 283.183594 C 184.6875 283.253906 186.09375 283.289062 187.5 283.289062 C 188.90625 283.289062 190.3125 283.253906 191.714844 283.183594 C 193.121094 283.113281 194.523438 283.011719 195.921875 282.875 C 197.324219 282.734375 198.71875 282.5625 200.109375 282.355469 C 201.5 282.152344 202.886719 281.910156 204.265625 281.636719 C 205.644531 281.363281 207.015625 281.054688 208.378906 280.710938 C 209.742188 280.371094 211.097656 279.996094 212.445312 279.585938 C 213.789062 279.179688 215.125 278.738281 216.449219 278.265625 C 217.773438 277.789062 219.085938 277.285156 220.382812 276.746094 C 221.683594 276.207031 222.96875 275.636719 224.242188 275.035156 C 225.511719 274.433594 226.765625 273.804688 228.007812 273.140625 C 229.25 272.476562 230.472656 271.785156 231.675781 271.0625 C 232.882812 270.339844 234.070312 269.585938 235.242188 268.804688 C 236.410156 268.023438 237.558594 267.214844 238.6875 266.375 C 239.820312 265.539062 240.925781 264.671875 242.015625 263.78125 C 243.101562 262.890625 244.167969 261.972656 245.207031 261.027344 C 246.25 260.082031 247.269531 259.113281 248.261719 258.117188 C 249.257812 257.125 250.226562 256.105469 251.171875 255.0625 C 252.117188 254.023438 253.035156 252.957031 253.925781 251.871094 C 254.816406 250.78125 255.683594 249.675781 256.519531 248.546875 C 257.359375 247.414062 258.167969 246.265625 258.949219 245.097656 C 259.730469 243.925781 260.484375 242.738281 261.207031 241.535156 C 261.929688 240.328125 262.621094 239.105469 263.285156 237.863281 C 263.949219 236.625 264.578125 235.367188 265.179688 234.097656 C 265.78125 232.824219 266.351562 231.539062 266.890625 230.238281 C 267.429688 228.941406 267.933594 227.628906 268.410156 226.304688 C 268.882812 224.980469 269.324219 223.644531 269.730469 222.300781 C 270.140625 220.953125 270.515625 219.597656 270.855469 218.234375 C 271.199219 216.871094 271.507812 215.5 271.78125 214.121094 C 272.054688 212.742188 272.296875 211.355469 272.5 209.964844 C 272.707031 208.574219 272.878906 207.179688 273.019531 205.777344 C 273.15625 204.378906 273.257812 202.976562 273.328125 201.570312 C 273.398438 200.167969 273.429688 198.761719 273.429688 197.355469 C 273.429688 195.949219 273.398438 194.542969 273.328125 193.140625 C 273.257812 191.734375 273.15625 190.332031 273.019531 188.933594 C 272.878906 187.535156 272.707031 186.136719 272.5 184.746094 C 272.296875 183.355469 272.054688 181.96875 271.78125 180.589844 C 271.507812 179.210938 271.199219 177.839844 270.855469 176.476562 C 270.515625 175.113281 270.140625 173.757812 269.730469 172.410156 C 269.324219 171.066406 268.882812 169.730469 268.410156 168.40625 C 267.933594 167.082031 267.429688 165.769531 266.890625 164.472656 C 266.351562 163.171875 265.78125 161.886719 265.179688 160.613281 C 264.578125 159.34375 263.949219 158.089844 263.285156 156.847656 C 262.621094 155.609375 261.929688 154.382812 261.207031 153.179688 C 260.484375 151.972656 259.730469 150.785156 258.949219 149.613281 C 258.167969 148.445312 257.359375 147.296875 256.519531 146.167969 C 255.683594 145.035156 254.816406 143.929688 253.925781 142.839844 C 253.035156 141.753906 252.117188 140.691406 251.171875 139.648438 C 250.226562 138.605469 249.257812 137.585938 248.261719 136.59375 C 247.269531 135.597656 246.25 134.628906 245.207031 133.683594 C 244.167969 132.738281 243.101562 131.820312 242.015625 130.929688 C 240.925781 130.039062 239.820312 129.171875 238.6875 128.335938 C 237.558594 127.496094 236.410156 126.6875 235.242188 125.90625 C 234.070312 125.125 232.882812 124.371094 231.675781 123.648438 C 230.472656 122.925781 229.25 122.234375 228.007812 121.570312 C 226.765625 120.90625 225.511719 120.277344 224.242188 119.675781 C 222.96875 119.074219 221.683594 118.503906 220.382812 117.964844 C 219.085938 117.425781 217.773438 116.921875 216.449219 116.449219 C 215.125 115.972656 213.789062 115.53125 212.445312 115.125 C 211.097656 114.714844 209.742188 114.339844 208.378906 114 C 207.015625 113.65625 205.644531 113.347656 204.265625 113.074219 C 202.886719 112.800781 201.5 112.558594 200.109375 112.355469 C 198.71875 112.148438 197.324219 111.976562 195.921875 111.835938 C 194.523438 111.699219 193.121094 111.597656 191.714844 111.527344 C 190.3125 111.457031 188.90625 111.425781 187.5 111.425781 Z M 187.5 111.425781 "/>
<path style=" stroke:none;fill-rule:nonzero;fill:rgb(100%,100%,100%);fill-opacity:1;" d="M 109.980469 234.253906 L 264.855469 234.523438 L 187.1875 368.515625 Z M 109.980469 234.253906 "/>
</g>
</svg>
